<svg width="436" height="237" viewBox="0 0 436 237" fill="none" xmlns="http://www.w3.org/2000/svg">
<path d="M120.279 77.2412C113.118 75.8324 109.692 73.5399 109.692 68.4297C109.651 66.6676 110.229 64.9463 111.328 63.563C113.723 60.1946 118.347 58.7602 124.928 58.7602C128.097 58.6701 131.26 59.0719 134.304 59.9513C136.545 60.6842 138.446 62.1932 139.662 64.2033C140.248 65.4428 140.639 66.7646 140.821 68.1224H130.235C129.578 65.4841 126.744 65.3176 124.928 65.3176C123.898 65.3176 120.176 65.4072 120.176 67.6997C120.176 69.4543 122.056 69.9666 126.435 70.8631L130.299 71.6316C134.407 72.4384 141.439 73.6295 141.439 80.2765C141.428 82.3374 140.751 84.34 139.508 85.9886C136.52 89.6515 131.368 91.0091 124.001 91.0091C118.991 91.0091 109.177 90.0742 108.198 80.7632H118.862C119.545 83.9138 123.576 84.2084 125.547 84.2084C128.895 84.2084 130.814 83.0173 130.814 81.1474C130.814 79.7771 129.526 79.0086 127.684 78.586L120.279 77.2412Z" stroke="white" stroke-miterlimit="10"/>
<path d="M146.913 60.0281H157.719V77.1131C157.719 79.2903 157.886 81.2114 159.638 82.7867C161.108 83.9746 162.961 84.5933 164.854 84.5285C166.699 84.5825 168.51 84.0287 170.006 82.9532C171.886 81.2883 171.976 78.8165 171.976 76.985V60.0281H182.769V76.6776C182.769 80.5198 182.64 84.362 179.562 87.2437C176.909 89.7155 172.453 91.1627 164.738 91.1627C160.668 91.1627 152.181 91.1627 148.536 85.7068C147.383 83.8109 146.819 81.619 146.913 79.4056V60.0281Z" stroke="white" stroke-miterlimit="10"/>
<path d="M191.501 60.0281H200.517L214.954 75.8836V60.0281H225.618V90.1125H216.603L202.204 74.0009V90.1125H191.488L191.501 60.0281Z" stroke="white" stroke-miterlimit="10"/>
<path d="M234.26 60.0281H245.091V90.1125H234.26V60.0281Z" stroke="white" stroke-miterlimit="10"/>
<path d="M289.125 79.2904C288.737 81.9023 287.54 84.3288 285.7 86.232C281.836 90.1511 275.512 91.1372 270.245 91.1372C266.389 91.3051 262.547 90.5726 259.027 88.9984C256.326 87.8228 254.045 85.8663 252.478 83.3833C250.911 80.9003 250.133 78.006 250.243 75.0768C250.243 71.9134 251.235 58.7603 270.592 58.7603C278.822 58.7603 282.84 60.7582 285.378 63.5246C286.956 65.3961 288.057 67.6194 288.585 70.0051H278.436C277.787 68.6077 276.726 67.4393 275.395 66.6548C274.063 65.8703 272.523 65.5067 270.979 65.6122C269.717 65.5233 268.45 65.7065 267.266 66.1494C266.082 66.5923 265.008 67.2844 264.117 68.1783C263.227 69.0722 262.541 70.1468 262.107 71.3286C261.673 72.5104 261.501 73.7715 261.603 75.0256C261.516 77.237 262.213 79.4083 263.573 81.1603C264.383 82.1973 265.431 83.025 266.631 83.5734C267.83 84.1218 269.145 84.3748 270.463 84.3109C274.92 84.3109 277.792 81.9288 278.655 79.2904H289.125Z" stroke="white" stroke-miterlimit="10"/>
<path d="M293.491 60.0281H325.406V66.7647H304.336V71.7212H323.822V78.4963H304.336V83.2478H325.844V90.0613H293.491V60.0281Z" stroke="white" stroke-miterlimit="10"/>
<path d="M53.9896 121.977C46.8417 120.568 43.4158 118.263 43.4158 113.153C43.3881 111.393 43.9753 109.677 45.0772 108.299C47.4341 105.02 52.0706 103.483 58.6648 103.483C61.8331 103.399 64.9956 103.801 68.0409 104.675C70.2895 105.406 72.1968 106.92 73.4115 108.939C74.0038 110.177 74.395 111.499 74.5706 112.858H63.971C63.2884 110.22 60.5323 110.143 58.6262 110.143C57.5958 110.143 53.8608 110.22 53.8608 112.525C53.8608 114.267 55.7541 114.78 60.1201 115.676L63.9839 116.444C68.0924 117.251 75.1244 118.442 75.1244 125.089C75.117 127.151 74.4393 129.155 73.1925 130.801C70.3205 134.464 65.1044 135.784 57.7375 135.784C52.7275 135.784 42.9135 134.849 41.9218 125.538H52.5987C53.2813 128.688 57.2996 128.996 59.2701 128.996C62.6187 128.996 64.5506 127.792 64.5506 125.922C64.5506 124.564 63.2627 123.796 61.4209 123.36L53.9896 121.977Z" stroke="white" stroke-miterlimit="10"/>
<path d="M80.6367 104.764H91.4424V134.836H80.6367V104.764Z" stroke="white" stroke-miterlimit="10"/>
<path d="M98.8351 104.764H109.718V127.51H125.173V134.836H98.8351V104.764Z" stroke="white" stroke-miterlimit="10"/>
<path d="M118.965 104.764H130.325L137.692 122.951L145.187 104.803H156.534L142.74 134.874H132.656L118.965 104.764Z" stroke="white" stroke-miterlimit="10"/>
<path d="M159.483 104.764H191.411V111.501H170.328V116.432H189.827V123.207H170.328V128.074H191.797V134.887H159.483V104.764Z" stroke="white" stroke-miterlimit="10"/>
<path d="M198.636 104.764H220.917C224.987 104.764 228.889 105.059 231.324 108.901C232.352 110.517 232.889 112.394 232.869 114.306C232.979 116.328 232.33 118.32 231.048 119.894C229.765 121.467 227.94 122.511 225.927 122.823L233.474 134.836H221.522L215.276 123.886H209.532V134.836H198.649L198.636 104.764ZM217.659 117.123C219.719 117.123 220.788 116.867 221.522 116.047C221.92 115.568 222.134 114.965 222.128 114.344C222.125 113.8 221.959 113.269 221.651 112.82C221.293 112.36 220.821 112.001 220.282 111.777C219.742 111.552 219.154 111.47 218.573 111.539H209.558V117.085L217.659 117.123Z" stroke="white" stroke-miterlimit="10"/>
<path d="M238.858 104.764H264.616C269.073 104.764 273.876 105.917 273.876 111.795C273.876 115.074 272.292 117.456 268.094 118.57C269.927 118.672 271.691 119.304 273.168 120.389C273.957 121.067 274.571 121.924 274.958 122.886C275.346 123.849 275.496 124.89 275.396 125.922C275.454 127.823 274.834 129.683 273.645 131.173C270.863 134.49 265.981 134.785 262.118 134.785H238.858V104.764ZM261.139 127.984C263.238 127.984 264.655 127.305 264.655 125.217C264.679 124.864 264.623 124.51 264.49 124.181C264.357 123.852 264.15 123.558 263.886 123.32C263.622 123.082 263.307 122.907 262.965 122.807C262.623 122.708 262.263 122.687 261.912 122.746H249.702V127.984H261.139ZM260.495 116.227C262.169 116.227 263.496 115.625 263.496 113.832C263.496 112.039 262.375 111.539 260.701 111.539H249.779V116.227H260.495Z" stroke="white" stroke-miterlimit="10"/>
<path d="M289.924 104.764H302.262L315.36 134.836H303.589L301.953 129.943H290.362L288.739 134.836H276.903L289.924 104.764ZM299.686 123.296L296.132 113.051L292.654 123.296H299.686Z" stroke="white" stroke-miterlimit="10"/>
<path d="M355.466 124.014C355.073 126.628 353.877 129.057 352.04 130.968C348.177 134.887 341.84 135.86 336.585 135.86C332.731 136.024 328.891 135.296 325.367 133.734C322.667 132.555 320.386 130.596 318.82 128.111C317.253 125.626 316.474 122.731 316.584 119.8C316.584 116.649 317.563 103.483 336.933 103.483C345.15 103.483 349.181 105.481 351.705 108.261C353.285 110.104 354.39 112.302 354.925 114.664H344.764C344.118 113.268 343.059 112.101 341.729 111.318C340.399 110.535 338.861 110.175 337.319 110.284C336.056 110.193 334.788 110.375 333.603 110.817C332.417 111.259 331.341 111.951 330.449 112.845C329.558 113.739 328.871 114.814 328.436 115.997C328.001 117.18 327.829 118.442 327.93 119.698C327.852 121.908 328.549 124.076 329.901 125.832C330.719 126.872 331.777 127.702 332.985 128.25C334.193 128.798 335.517 129.05 336.843 128.983C341.299 128.983 344.171 126.601 345.021 123.95L355.466 124.014Z" stroke="white" stroke-miterlimit="10"/>
<path d="M359.781 104.764H369.839V116.009L380.001 104.764H393.151L381.225 116.137L394.464 134.836H381.495L373.574 123.463L369.801 127.049V134.836H359.781V104.764Z" stroke="white" stroke-miterlimit="10"/>
<path d="M154.061 168.75C153.666 171.359 152.469 173.784 150.635 175.691C146.771 179.61 140.435 180.596 135.18 180.596C131.32 180.764 127.474 180.032 123.95 178.458C121.249 177.282 118.967 175.326 117.401 172.843C115.834 170.36 115.055 167.465 115.166 164.536C115.166 161.385 116.158 148.219 135.515 148.219C143.745 148.219 147.776 150.217 150.3 152.984C151.884 154.852 152.985 157.077 153.507 159.464H143.346C142.697 158.067 141.636 156.899 140.304 156.114C138.973 155.33 137.433 154.966 135.889 155.071C134.627 154.983 133.36 155.166 132.176 155.609C130.992 156.052 129.918 156.744 129.027 157.638C128.137 158.531 127.451 159.606 127.017 160.788C126.583 161.97 126.411 163.231 126.512 164.485C126.43 166.696 127.127 168.866 128.483 170.62C129.298 171.664 130.355 172.497 131.564 173.047C132.773 173.598 134.097 173.85 135.425 173.783C139.881 173.783 142.74 171.388 143.603 168.75H154.061Z" stroke="white" stroke-miterlimit="10"/>
<path d="M158.414 149.5H169.246V179.572H158.414V149.5Z" stroke="white" stroke-miterlimit="10"/>
<path d="M177.476 149.5H199.757C203.826 149.5 207.729 149.795 210.163 153.624C211.195 155.243 211.732 157.125 211.709 159.042C211.816 161.064 211.166 163.054 209.884 164.627C208.601 166.2 206.778 167.245 204.767 167.559L212.314 179.572H200.362L194.103 168.622H188.359V179.572H177.476V149.5ZM196.498 161.847C198.559 161.847 199.628 161.59 200.362 160.784C200.759 160.304 200.973 159.701 200.967 159.08C200.963 158.532 200.798 157.998 200.491 157.543C200.132 157.084 199.661 156.724 199.121 156.5C198.582 156.275 197.993 156.194 197.413 156.263H188.397V161.795L196.498 161.847Z" stroke="white" stroke-miterlimit="10"/>
<path d="M253.514 168.75C253.119 171.359 251.922 173.784 250.089 175.691C246.225 179.61 239.888 180.596 234.634 180.596C230.778 180.764 226.936 180.032 223.416 178.458C220.716 177.282 218.434 175.325 216.867 172.843C215.301 170.36 214.522 167.465 214.632 164.536C214.632 161.385 215.611 148.219 234.981 148.219C243.198 148.219 247.229 150.217 249.754 152.984C251.341 154.852 252.446 157.076 252.974 159.464H242.812C242.167 158.067 241.109 156.898 239.779 156.113C238.449 155.328 236.91 154.965 235.368 155.071C234.105 154.981 232.837 155.162 231.651 155.604C230.465 156.046 229.389 156.738 228.498 157.632C227.606 158.526 226.919 159.602 226.484 160.785C226.049 161.967 225.877 163.23 225.979 164.485C225.896 166.696 226.593 168.866 227.949 170.62C228.765 171.663 229.823 172.495 231.031 173.046C232.239 173.597 233.564 173.849 234.891 173.783C239.347 173.783 242.219 171.388 243.069 168.75H253.514Z" stroke="white" stroke-miterlimit="10"/>
<path d="M257.018 149.5H267.888V172.246H283.343V179.572H257.018V149.5Z" stroke="white" stroke-miterlimit="10"/>
<path d="M287.348 149.5H319.263V156.25H298.18V161.193H317.679V167.968H298.18V172.784H319.649V179.598H287.348V149.5Z" stroke="white" stroke-miterlimit="10"/>
<path d="M217.994 235.719C160.243 235.719 105.944 223.604 65.0529 201.613C23.9296 179.482 1.2879 149.961 1.2879 118.506C1.2879 87.0516 23.9296 57.5306 65.0529 35.3995C105.932 13.3965 160.243 1.28076 217.994 1.28076C275.744 1.28076 330.043 13.3965 370.934 35.3995C412.058 57.5306 434.712 87.09 434.712 118.506C434.712 149.923 412.058 179.482 370.921 201.613C330.068 223.604 275.744 235.719 217.994 235.719Z" stroke="white" stroke-miterlimit="10"/>
</svg>
