<svg width="70" height="54" viewBox="0 0 70 54" fill="none" xmlns="http://www.w3.org/2000/svg">
<path d="M59.258 4.74519C54.7965 2.6981 50.0121 1.18982 45.0097 0.32589C44.9187 0.309211 44.8276 0.35091 44.7807 0.434172C44.1653 1.52861 43.4838 2.95622 43.0065 4.07841C37.6262 3.27286 32.2734 3.27286 27.0034 4.07841C26.526 2.93134 25.8197 1.52861 25.2016 0.434172C25.1547 0.353644 25.0637 0.311945 24.9726 0.32589C19.9731 1.18695 15.1888 2.69523 10.7243 4.74519C10.6856 4.76187 10.6526 4.78962 10.6305 4.82571C1.5557 18.3834 -0.93039 31.608 0.289141 44.6684C0.29461 44.7323 0.330567 44.7934 0.380196 44.8322C6.36752 49.2292 12.1674 51.8985 17.8594 53.6679C17.9505 53.6957 18.047 53.6625 18.105 53.5874C19.4514 51.7487 20.6516 49.8099 21.6807 47.771C21.7414 47.6516 21.6834 47.51 21.5593 47.4627C19.6555 46.7405 17.8427 45.8599 16.0989 44.8601C15.9609 44.7796 15.9499 44.5823 16.0769 44.4878C16.4438 44.2129 16.8109 43.9267 17.1613 43.6378C17.2248 43.5851 17.3131 43.574 17.3876 43.6072C28.8435 48.8377 41.246 48.8377 52.5667 43.6072C52.6412 43.5711 52.7295 43.5823 52.7957 43.635C53.1463 43.9239 53.5132 44.2127 53.8829 44.4877C54.0098 44.5822 54.0014 44.7794 53.8636 44.86C52.1198 45.8793 50.307 46.7404 48.4005 47.4598C48.2763 47.507 48.2211 47.6515 48.2819 47.7709C49.3332 49.8069 50.5334 51.7457 51.8549 53.5845C51.9102 53.6623 52.0094 53.6957 52.1005 53.6678C57.8201 51.8985 63.62 49.2291 69.6073 44.8321C69.6598 44.7933 69.6929 44.7349 69.6984 44.671C71.158 29.5717 67.2537 16.4556 59.3488 4.82831C59.3296 4.78962 59.2966 4.76187 59.258 4.74519ZM23.3917 36.7159C19.9427 36.7159 17.1008 33.5495 17.1008 29.6607C17.1008 25.7718 19.8875 22.6054 23.3917 22.6054C26.9233 22.6054 29.7378 25.7997 29.6826 29.6607C29.6826 33.5495 26.8957 36.7159 23.3917 36.7159ZM46.6513 36.7159C43.2024 36.7159 40.3605 33.5495 40.3605 29.6607C40.3605 25.7718 43.1472 22.6054 46.6513 22.6054C50.183 22.6054 52.9974 25.7997 52.9423 29.6607C52.9423 33.5495 50.1832 36.7159 46.6513 36.7159Z" fill="white"/>
</svg>
