<svg width="54" height="54" viewBox="0 0 54 54" fill="none" xmlns="http://www.w3.org/2000/svg">
<path d="M42.697 9.99219C41.9742 9.99219 41.386 10.5804 41.386 11.3032C41.386 12.0259 41.9742 12.6141 42.697 12.6141C43.4198 12.6141 44.0079 12.026 44.0079 11.3032C44.0079 10.5803 43.4198 9.99219 42.697 9.99219Z" fill="white"/>
<path d="M27 16C20.9346 16 16 20.9346 16 27C16 33.0653 20.9346 38 27 38C33.0654 38 38 33.0654 38 27.0001C38 20.9347 33.0654 16 27 16Z" fill="white"/>
<path d="M39.1967 0H14.8033C6.64073 0 0 6.64073 0 14.8034V39.1967C0 47.3594 6.64073 54 14.8033 54H39.1967C47.3594 54 54 47.3593 54 39.1967V14.8034C54 6.64073 47.3594 0 39.1967 0ZM27 41.8112C18.833 41.8112 12.1889 35.167 12.1889 27C12.1889 18.833 18.8331 12.189 27 12.189C35.1669 12.189 41.8112 18.8331 41.8112 27C41.8112 35.1669 35.1669 41.8112 27 41.8112ZM42.697 15.803C40.2158 15.803 38.1971 13.7843 38.1971 11.3031C38.1971 8.82183 40.2158 6.80305 42.697 6.80305C45.1783 6.80305 47.1969 8.82172 47.1969 11.303C47.1969 13.7842 45.1783 15.803 42.697 15.803Z" fill="white"/>
</svg>
