<svg width="17" height="14" viewBox="0 0 17 14" fill="none" xmlns="http://www.w3.org/2000/svg">
<path d="M16.879 1.7918C16.249 2.0648 15.598 2.2538 14.905 2.3378C15.619 1.9178 16.165 1.2458 16.417 0.426805C15.745 0.825805 15.01 1.0988 14.233 1.2668C13.603 0.594805 12.7 0.174805 11.713 0.174805C9.80198 0.174805 8.26898 1.7288 8.26898 3.6188C8.26898 3.8918 8.28998 4.1438 8.35298 4.3958C5.49698 4.2698 2.97698 2.8838 1.27598 0.804805C0.0579796 2.9888 1.42298 4.7948 2.32598 5.4038C1.77998 5.4038 1.23398 5.2358 0.77198 4.9838C0.77198 6.6848 1.96898 8.0918 3.52298 8.4068C3.18698 8.5118 2.43098 8.5748 1.96898 8.4698C2.40998 9.8348 3.69098 10.8428 5.18198 10.8638C4.00598 11.7878 2.28398 12.5228 0.0789795 12.2918C1.61198 13.2788 3.41798 13.8458 5.37098 13.8458C11.713 13.8458 15.157 8.5958 15.157 4.0598C15.157 3.9128 15.157 3.7658 15.136 3.6188C15.85 3.0938 16.438 2.4848 16.879 1.7918Z" fill="#EC605F"/>
</svg>
