<svg width="17" height="14" viewBox="0 0 17 14" fill="none" xmlns="http://www.w3.org/2000/svg">
<path d="M14.3913 1.59513C13.3077 1.09798 12.1458 0.731687 10.931 0.521876C10.9088 0.517826 10.8867 0.527953 10.8753 0.548173C10.7259 0.813964 10.5604 1.16067 10.4445 1.4332C9.13783 1.23757 7.83786 1.23757 6.55801 1.4332C6.44206 1.15463 6.27054 0.813964 6.12043 0.548173C6.10904 0.528617 6.08692 0.51849 6.06481 0.521876C4.85064 0.73099 3.68873 1.09729 2.60451 1.59513C2.59512 1.59918 2.58708 1.60593 2.58173 1.61469C0.377843 4.90728 -0.225922 8.11895 0.0702496 11.2908C0.0715778 11.3063 0.0803102 11.3211 0.0923629 11.3306C1.54643 12.3984 2.95497 13.0467 4.33732 13.4764C4.35943 13.4831 4.38287 13.475 4.39695 13.4568C4.72393 13.0103 5.01542 12.5394 5.26534 12.0443C5.28009 12.0153 5.26601 11.9809 5.23586 11.9694C4.77351 11.794 4.33327 11.5801 3.90976 11.3373C3.87626 11.3178 3.87357 11.2699 3.90442 11.2469C3.99353 11.1801 4.08268 11.1107 4.16778 11.0405C4.18319 11.0277 4.20464 11.025 4.22273 11.0331C7.00489 12.3033 10.0169 12.3033 12.7662 11.0331C12.7843 11.0243 12.8058 11.027 12.8218 11.0398C12.907 11.11 12.9961 11.1801 13.0859 11.2469C13.1167 11.2698 13.1147 11.3177 13.0812 11.3373C12.6577 11.5849 12.2175 11.794 11.7544 11.9687C11.7243 11.9801 11.7109 12.0152 11.7256 12.0442C11.9809 12.5387 12.2724 13.0095 12.5934 13.4561C12.6068 13.475 12.6309 13.4831 12.653 13.4763C14.0421 13.0467 15.4506 12.3984 16.9047 11.3305C16.9174 11.3211 16.9255 11.3069 16.9268 11.2914C17.2813 7.62442 16.3331 4.43908 14.4133 1.61532C14.4087 1.60593 14.4006 1.59918 14.3913 1.59513ZM5.68088 9.35945C4.84327 9.35945 4.15307 8.59047 4.15307 7.64604C4.15307 6.70161 4.82985 5.93262 5.68088 5.93262C6.53855 5.93262 7.22207 6.70838 7.20866 7.64604C7.20866 8.59047 6.53185 9.35945 5.68088 9.35945ZM11.3296 9.35945C10.4921 9.35945 9.80186 8.59047 9.80186 7.64604C9.80186 6.70161 10.4786 5.93262 11.3296 5.93262C12.1873 5.93262 12.8708 6.70838 12.8574 7.64604C12.8574 8.59047 12.1874 9.35945 11.3296 9.35945Z" fill="#EC605F"/>
</svg>
