<svg width="193" height="43" viewBox="0 0 193 43" fill="none" xmlns="http://www.w3.org/2000/svg">
<g clip-path="url(#clip0_4_2)">
<path d="M66.1478 20.8478C67.8235 20.3372 69.0649 19.5497 69.9401 18.4379C70.7103 17.4188 71.1292 16.1815 71.135 14.9086C71.135 10.944 67.0398 10.1463 64.3303 9.61911L64.1138 9.57316L61.6325 9.07663C58.8134 8.50225 57.3426 8.04656 57.3426 6.67441C57.3426 5.50139 58.5388 4.85552 60.7121 4.85552C61.8194 4.85552 63.7026 5.03804 64.3123 6.83141H70.6658C70.5114 6.05945 70.254 5.31127 69.9001 4.60662C69.1799 3.36897 68.028 2.43438 66.6609 1.97847C65.6297 1.61214 63.6008 1.22028 60.7392 1.22028C56.3939 1.22028 53.5697 2.20312 52.1028 4.22497C51.4311 5.07345 51.0772 6.12626 51.1013 7.20413C51.1013 8.76136 51.6066 9.88461 52.6932 10.7462C53.736 11.5708 55.346 12.1745 57.7603 12.6468L62.5799 13.5849C64.079 13.8887 64.8382 14.6176 64.8382 15.5723C64.8382 16.2756 64.4799 16.8577 63.807 17.2572C63.1625 17.6337 62.2434 17.8329 61.1362 17.8329C58.5878 17.8329 57.1106 16.8794 56.6672 15.4153H50.2505C50.5908 17.7588 51.8283 19.5369 54.1176 20.521C55.6966 21.2039 57.7203 21.5498 60.1295 21.5498C62.6018 21.56 64.5714 21.3264 66.1478 20.8478Z" fill="white"/>
<path d="M73.8096 4.8504H79.6269V14.0176C79.6269 15.183 79.7197 16.2118 80.6659 17.0581C81.6816 17.972 83.0892 17.972 83.4823 17.972C83.8059 17.972 85.2599 17.949 86.2292 17.127C87.2449 16.2335 87.2913 14.9086 87.2913 13.9257V4.8504H93.1086V13.7853C93.1086 15.8429 93.039 17.9005 91.3775 19.4539C89.9454 20.7801 87.5453 21.5575 83.3857 21.5575C81.1944 21.5575 76.6223 21.5345 74.6591 18.6319C73.8058 17.3555 73.8058 15.8659 73.8058 15.2711L73.8096 4.8504Z" fill="white"/>
<path d="M97.9798 4.8504H102.805L110.584 13.3552V4.8504H116.333V20.9882H111.485L103.751 12.3481V20.9882H97.9798V4.8504Z" fill="white"/>
<path d="M151.007 15.1817C150.821 16.2335 150.383 17.6733 149.16 18.9089C147.059 21.0111 143.666 21.537 140.826 21.537C137.756 21.537 136.002 20.9652 134.777 20.3946C133.162 19.6403 130.045 17.6516 130.045 12.9187C130.045 11.2274 130.576 4.1637 141.011 4.1637C145.443 4.1637 147.613 5.23844 148.975 6.72419C149.878 7.68406 150.569 9.35234 150.707 10.1986H145.235C144.451 8.50735 142.927 7.84361 141.218 7.84361C140.619 7.84361 138.769 7.91254 137.432 9.30766C136.53 10.2446 136.163 11.6167 136.163 12.8957C136.163 14.6112 136.787 15.64 137.225 16.1876C138.514 17.8341 140.226 17.8801 140.963 17.8801C143.364 17.8801 144.911 16.6037 145.373 15.1817H151.007Z" fill="white"/>
<path d="M153.5 4.8504H170.698V8.46267H159.34V11.1125H169.844V14.7478H159.34V17.3312H170.906V20.9882H153.505L153.5 4.8504Z" fill="white"/>
<path d="M51.3951 25.8832H67.3711V29.5185H57.2318V32.6049H66.5358V36.2159H57.2318V42.0223H51.3951V25.8832Z" fill="white"/>
<path d="M70.5562 25.8832H87.7554V29.4955H76.3967V32.1466H86.9008V35.7819H76.3967V38.3653H87.9629V42.0223H70.5614L70.5562 25.8832Z" fill="white"/>
<path d="M97.0117 35.1194C93.1563 34.3651 91.3105 33.1308 91.3105 30.3865C91.2896 29.4438 91.5994 28.5232 92.187 27.7813C93.476 25.9943 95.9728 25.1978 99.5343 25.1978C101.889 25.1978 103.69 25.5182 104.59 25.836C105.606 26.1794 106.781 26.9108 107.476 28.1221C107.892 28.8765 108.077 30.0201 108.1 30.2256H102.391C102.022 28.8088 100.498 28.7399 99.5047 28.7399C98.9517 28.7399 96.9421 28.7858 96.9421 30.0163C96.9421 30.9532 97.9579 31.2276 100.313 31.7075L102.368 32.1198C104.583 32.5538 108.37 33.1933 108.37 36.7596C108.367 37.865 108.002 38.9396 107.331 39.823C105.785 41.7887 102.968 42.5035 99.02 42.5035C96.3131 42.5035 91.0282 42.0006 90.5023 37.0404H96.2499C96.6199 38.7317 98.7893 38.8925 99.8514 38.8925C101.656 38.8925 102.687 38.2543 102.687 37.2459C102.687 36.5145 102.018 36.0972 101.002 35.898L97.0117 35.1194Z" fill="white"/>
<path d="M114.926 29.4955H109.317V25.8832H126.377V29.4955H120.79V42.0223H114.926V29.4955Z" fill="white"/>
<path d="M128.662 25.8832H134.502V42.0223H128.662V25.8832Z" fill="white"/>
<path d="M136.673 25.8832H142.791L146.761 35.6223L150.801 25.8832H156.918L149.484 42.0223H144.06L136.673 25.8832Z" fill="white"/>
<path d="M162.598 25.8832H169.246L176.31 42.0223H169.962L169.084 39.3941H162.851L161.974 42.0223H155.556L162.598 25.8832ZM167.861 35.8278L165.945 30.3647L164.075 35.8278H167.861Z" fill="white"/>
<path d="M178.803 25.8832H184.667V38.0909H193V42.0223H178.803V25.8832Z" fill="white"/>
<path d="M121.272 2.69707V20.9882H127.113V0L121.272 2.69707Z" fill="white"/>
<path d="M42.5075 11.692L39.3146 0.765869L23.8466 5.58946L21.2544 10.5943L18.6635 5.58435L3.19544 1.32111L0 11.692L5.06836 17.5061L0.408614 22.0936L11.3432 26.8048L7.11272 22.2467L15.6485 12.9544C15.6485 12.9544 10.5273 14.7567 7.91449 15.4945C7.98925 15.2736 9.11455 13.5696 9.11455 13.5696L3.93404 11.7137L5.42413 8.82773L18.5372 10.796C18.5372 10.796 21.217 16.0293 21.2544 16.1263C21.2918 16.0344 23.9716 10.5726 23.9716 10.5726L37.0834 7.4275L38.5734 11.1546L33.9537 13.5696C33.9537 13.5696 34.5131 15.2736 34.5878 15.4945C31.9815 14.7567 26.8538 12.9544 26.8538 12.9544L35.3896 22.2467L31.1707 26.8048L42.0989 22.0987L37.4404 17.5112L42.5075 11.692Z" fill="white"/>
<path d="M21.2544 38.8466C14.6908 38.8466 8.52933 40.2953 3.88892 42.9311L8.46617 43.0026C8.46617 43.0026 16.6591 41.924 21.2544 41.924C25.8497 41.924 34.0413 43.0026 34.0413 43.0026L38.6186 42.9311C33.9781 40.2953 27.818 38.8466 21.2544 38.8466Z" fill="white"/>
<path d="M27.6028 26.5674L24.1224 28.1935L31.3035 22.262L27.3527 16.4186L21.2544 18.6051L15.0994 16.4747L11.2028 22.262L18.3838 28.1935L14.9035 26.5674C14.9035 26.5674 5.74383 31.7126 3.81805 41.1007C8.60541 38.5887 14.7514 37.4297 21.2544 37.4297C27.7561 37.4297 33.9034 38.5887 38.6908 41.1007C36.7637 31.7126 27.6028 26.5674 27.6028 26.5674ZM19.0283 23.3853C18.0358 22.479 17.5266 22.1191 16.9453 21.7846C16.377 21.4654 15.7614 21.2367 15.1213 21.1069C15.1213 21.1069 14.9099 19.2612 17.0484 19.6939C19.1868 20.1266 19.3686 22.5033 19.0283 23.3853ZM25.4604 19.6939C27.5989 19.2612 27.3862 21.1069 27.3862 21.1069C26.7462 21.2369 26.1307 21.4656 25.5623 21.7846C24.9809 22.1191 24.4731 22.479 23.4792 23.3853C23.1389 22.5033 23.322 20.1279 25.4604 19.6939Z" fill="white"/>
</g>
<defs>
<clipPath id="clip0_4_2">
<rect width="193" height="43" fill="white"/>
</clipPath>
</defs>
</svg>
