<svg width="15" height="16" viewBox="0 0 15 16" fill="none" xmlns="http://www.w3.org/2000/svg">
<path d="M10.888 0.5H4.11202C1.84465 0.5 0 2.34465 0 4.61205V11.388C0 13.6554 1.84465 15.5 4.11202 15.5H10.888C13.1554 15.5 15 13.6554 15 11.388V4.61205C15 2.34465 13.1554 0.5 10.888 0.5ZM7.5 12.1142C5.2314 12.1142 3.38581 10.2686 3.38581 8C3.38581 5.7314 5.23143 3.88584 7.5 3.88584C9.76857 3.88584 11.6142 5.73143 11.6142 8C11.6142 10.2686 9.76857 12.1142 7.5 12.1142ZM11.8603 4.88973C11.171 4.88973 10.6103 4.32898 10.6103 3.63975C10.6103 2.95051 11.171 2.38974 11.8603 2.38974C12.5495 2.38974 13.1103 2.95048 13.1103 3.63972C13.1103 4.32895 12.5495 4.88973 11.8603 4.88973Z" fill="#EC605F"/>
</svg>
