<svg width="43" height="44" viewBox="0 0 43 44" fill="none" xmlns="http://www.w3.org/2000/svg">
<path d="M42.5075 11.692L39.3146 0.765869L23.8466 5.58946L21.2544 10.5943L18.6635 5.58435L3.19544 1.32111L0 11.692L5.06836 17.5061L0.408614 22.0936L11.3432 26.8048L7.11272 22.2467L15.6485 12.9544C15.6485 12.9544 10.5273 14.7567 7.91449 15.4945C7.98925 15.2736 9.11455 13.5696 9.11455 13.5696L3.93404 11.7137L5.42413 8.82773L18.5372 10.796C18.5372 10.796 21.217 16.0293 21.2544 16.1263C21.2918 16.0344 23.9716 10.5726 23.9716 10.5726L37.0834 7.4275L38.5734 11.1546L33.9537 13.5696C33.9537 13.5696 34.5131 15.2736 34.5878 15.4945C31.9815 14.7567 26.8538 12.9544 26.8538 12.9544L35.3896 22.2467L31.1707 26.8048L42.0989 22.0987L37.4404 17.5112L42.5075 11.692Z" fill="white"/>
<path d="M21.2541 38.8466C14.6905 38.8466 8.52909 40.2953 3.88867 42.9311L8.46593 43.0026C8.46593 43.0026 16.6588 41.924 21.2541 41.924C25.8494 41.924 34.0411 43.0026 34.0411 43.0026L38.6183 42.9311C33.9779 40.2953 27.8178 38.8466 21.2541 38.8466Z" fill="white"/>
<path d="M27.6031 26.5674L24.1227 28.1935L31.3038 22.262L27.353 16.4186L21.2547 18.6051L15.0997 16.4747L11.2031 22.262L18.3841 28.1935L14.9038 26.5674C14.9038 26.5674 5.74413 31.7126 3.81836 41.1007C8.60572 38.5887 14.7517 37.4297 21.2547 37.4297C27.7565 37.4297 33.9037 38.5887 38.6911 41.1007C36.764 31.7126 27.6031 26.5674 27.6031 26.5674ZM19.0286 23.3853C18.0361 22.479 17.5269 22.1191 16.9456 21.7846C16.3773 21.4654 15.7618 21.2367 15.1216 21.1069C15.1216 21.1069 14.9102 19.2612 17.0487 19.6939C19.1872 20.1266 19.3689 22.5033 19.0286 23.3853V23.3853ZM25.4607 19.6939C27.5992 19.2612 27.3865 21.1069 27.3865 21.1069C26.7465 21.2369 26.131 21.4656 25.5626 21.7846C24.9812 22.1191 24.4734 22.479 23.4795 23.3853C23.1392 22.5033 23.3223 20.1279 25.4607 19.6939V19.6939Z" fill="white"/>
</svg>
