<svg width="62" height="50" viewBox="0 0 62 50" fill="none" xmlns="http://www.w3.org/2000/svg">
<path d="M61.3241 6.15181C59.0441 7.13981 56.6881 7.8238 54.1801 8.1278C56.7641 6.6078 58.7401 4.17581 59.6521 1.21181C57.2201 2.65581 54.5601 3.64381 51.7481 4.25181C49.4681 1.81981 46.2001 0.299805 42.6281 0.299805C35.7121 0.299805 30.1641 5.92381 30.1641 12.7638C30.1641 13.7518 30.2401 14.6638 30.4681 15.5758C20.1321 15.1198 11.0121 10.1038 4.85605 2.5798C0.448048 10.4838 5.38805 17.0198 8.65605 19.2238C6.68005 19.2238 4.70405 18.6158 3.03205 17.7038C3.03205 23.8598 7.36405 28.9518 12.988 30.0918C11.772 30.4718 9.03605 30.6998 7.36405 30.3198C8.96005 35.2598 13.5961 38.9078 18.9921 38.9838C14.7361 42.3278 8.50405 44.9878 0.524048 44.1518C6.07205 47.7238 12.608 49.7758 19.6761 49.7758C42.6281 49.7758 55.0921 30.7758 55.0921 14.3598C55.0921 13.8278 55.0921 13.2958 55.0161 12.7638C57.6001 10.8638 59.7281 8.65981 61.3241 6.15181Z" fill="white"/>
</svg>
