<svg width="66" height="66" viewBox="0 0 66 66" fill="none" xmlns="http://www.w3.org/2000/svg">
<path d="M44.1086 20.625C41.9327 10.5187 37.292 4.125 33 4.125C28.7079 4.125 24.0673 10.5187 21.8914 20.625H44.1086Z" fill="white"/>
<path d="M20.625 33C20.6245 35.7592 20.8085 38.5153 21.1757 41.25H44.8243C45.1915 38.5153 45.3755 35.7592 45.375 33C45.3755 30.2408 45.1915 27.4847 44.8243 24.75H21.1757C20.8085 27.4847 20.6245 30.2408 20.625 33Z" fill="white"/>
<path d="M21.8914 45.375C24.0673 55.4812 28.7079 61.875 33 61.875C37.292 61.875 41.9327 55.4812 44.1086 45.375H21.8914Z" fill="white"/>
<path d="M48.3326 20.6251H61.3264C59.374 16.182 56.4076 12.2583 52.665 9.16862C48.9224 6.07898 44.5078 3.90942 39.7753 2.83398C43.6879 6.2763 46.7569 12.6412 48.3326 20.6251Z" fill="white"/>
<path d="M62.8093 24.75H48.9906C49.3308 27.4868 49.501 30.2421 49.5 33C49.5003 35.7579 49.3295 38.5132 48.9885 41.25H62.8073C64.3114 35.8528 64.3114 30.1472 62.8073 24.75H62.8093Z" fill="white"/>
<path d="M39.7753 63.1661C44.5086 62.0913 48.924 59.922 52.6673 56.8323C56.4107 53.7426 59.3778 49.8186 61.3305 45.375H48.3368C46.7569 53.3589 43.6879 59.7238 39.7753 63.1661Z" fill="white"/>
<path d="M17.6674 45.375H4.67365C6.6264 49.8186 9.59348 53.7426 13.3368 56.8323C17.0802 59.922 21.4956 62.0913 26.2288 63.1661C22.3121 59.7238 19.2431 53.3589 17.6674 45.375Z" fill="white"/>
<path d="M26.2247 2.83398C21.4915 3.90884 17.076 6.07813 13.3327 9.1678C9.58933 12.2575 6.62225 16.1815 4.66949 20.6251H17.6632C19.2431 12.6412 22.3121 6.2763 26.2247 2.83398Z" fill="white"/>
<path d="M16.5 33C16.4997 30.2421 16.6705 27.4868 17.0115 24.75H3.19272C1.68861 30.1472 1.68861 35.8528 3.19272 41.25H17.0115C16.6705 38.5132 16.4997 35.7579 16.5 33Z" fill="white"/>
</svg>
