<svg width="17" height="18" viewBox="0 0 17 18" fill="none" xmlns="http://www.w3.org/2000/svg">
<path d="M11.3613 5.8125C10.8008 3.20937 9.60552 1.5625 8.49998 1.5625C7.39445 1.5625 6.19914 3.20937 5.63867 5.8125H11.3613Z" fill="#EC605F"/>
<path d="M5.3125 9C5.31237 9.7107 5.35976 10.4206 5.45434 11.125H11.5457C11.6402 10.4206 11.6876 9.7107 11.6875 9C11.6876 8.2893 11.6402 7.57938 11.5457 6.875H5.45434C5.35976 7.57938 5.31237 8.2893 5.3125 9Z" fill="#EC605F"/>
<path d="M5.63867 12.1875C6.19914 14.7906 7.39445 16.4375 8.49998 16.4375C9.60552 16.4375 10.8008 14.7906 11.3613 12.1875H5.63867Z" fill="#EC605F"/>
<path d="M12.4493 5.81254H15.7961C15.2933 4.66811 14.5292 3.65745 13.5652 2.86163C12.6012 2.06581 11.4641 1.50699 10.2451 1.22998C11.2529 2.11664 12.0434 3.75607 12.4493 5.81254Z" fill="#EC605F"/>
<path d="M16.1782 6.875H12.6188C12.7065 7.57994 12.7503 8.28963 12.75 9C12.7501 9.71038 12.7061 10.4201 12.6183 11.125H16.1777C16.5651 9.73482 16.5651 8.26518 16.1777 6.875H16.1782Z" fill="#EC605F"/>
<path d="M10.2451 16.7701C11.4643 16.4932 12.6016 15.9344 13.5658 15.1386C14.53 14.3428 15.2942 13.3321 15.7972 12.1875H12.4503C12.0434 14.244 11.2529 15.8834 10.2451 16.7701Z" fill="#EC605F"/>
<path d="M4.55073 12.1875H1.20386C1.70684 13.3321 2.47109 14.3428 3.43528 15.1386C4.39948 15.9344 5.53679 16.4932 6.75595 16.7701C5.74711 15.8834 4.95661 14.244 4.55073 12.1875Z" fill="#EC605F"/>
<path d="M6.75485 1.22998C5.53569 1.50684 4.39838 2.06559 3.43419 2.86142C2.46999 3.65724 1.70574 4.66798 1.20276 5.81254H4.54963C4.95657 3.75607 5.74707 2.11664 6.75485 1.22998Z" fill="#EC605F"/>
<path d="M4.25005 9C4.24999 8.28962 4.29399 7.57993 4.3818 6.875H0.822428C0.435004 8.26518 0.435004 9.73482 0.822428 11.125H4.3818C4.29399 10.4201 4.24999 9.71038 4.25005 9Z" fill="#EC605F"/>
</svg>
