<svg xmlns="http://www.w3.org/2000/svg" viewBox="0 0 1827.16 605.41"><defs><style>.cls-1{fill:#fff;}.cls-2{fill:#ec605f;}.cls-3{fill:#181716;}</style></defs><g id="Layer_3" data-name="Layer 3"><rect class="cls-1" x="14.5" y="14.5" width="1798.16" height="576.42"/><path class="cls-2" d="M1798.16,29V576.41H29V29H1798.16m29-29H0V605.41H1827.16V0Z"/><path d="M681.8,287.88c13-4,22.62-10.18,29.41-18.89a46.53,46.53,0,0,0,9.28-27.65c0-31.06-31.77-37.3-52.79-41.44l-1.69-.33-19.24-3.89c-21.88-4.51-33.29-8.07-33.29-18.82,0-9.19,9.29-14.25,26.15-14.25,8.59,0,23.2,1.43,27.92,15.48h49.3a69.32,69.32,0,0,0-5.94-17.43,45.85,45.85,0,0,0-25.14-20.61c-8-2.88-23.73-5.94-45.93-5.94-33.71,0-55.63,7.7-67,23.53v0l0,0A36.54,36.54,0,0,0,565,181c0,12.21,3.93,21,12.35,27.75,8.1,6.46,20.59,11.19,39.32,14.89L654.09,231c11.63,2.38,17.51,8.1,17.51,15.58,0,5.51-2.77,10.07-8,13.19-5,3-12.12,4.52-20.71,4.52-19.77,0-31.24-7.48-34.67-18.94H558.47c2.64,18.35,12.24,32.28,30,40,12.26,5.35,27.95,8.07,46.65,8.07C654.29,293.46,669.57,291.63,681.8,287.88Z"/><path d="M741.23,162.54h45.14v71.81c0,9.14.71,17.2,8.06,23.82,7.88,7.17,18.8,7.17,21.84,7.17,2.51,0,13.79-.18,21.32-6.63,7.88-7,8.24-17.37,8.24-25.07v-71.1H891v70c0,16.12-.54,32.24-13.43,44.42-11.11,10.39-29.73,16.48-62,16.48-17,0-52.48-.18-67.7-22.93-6.63-10-6.63-21.67-6.63-26.33Z"/><path d="M928.75,162.54h37.43l60.35,66.62V162.54h44.59V289h-37.6l-60-67.7V289H928.75Z"/><path d="M1340.12,243.49c-1.43,8.24-4.83,19.52-14.32,29.19-16.3,16.48-42.63,20.6-64.66,20.6-23.81,0-37.43-4.48-46.92-9-12.53-5.91-36.71-21.49-36.71-58.56,0-13.25,4.12-68.59,85.07-68.59,34.38,0,51.22,8.41,61.78,20.05,7,7.53,12.36,20.6,13.44,27.23h-42.45c-6.09-13.26-17.91-18.45-31.16-18.45-4.66,0-19,.54-29.37,11.46-7,7.34-9.85,18.09-9.85,28.12,0,13.43,4.83,21.49,8.24,25.79,10,12.89,23.28,13.25,29,13.25,18.63,0,30.62-10,34.21-21.13Z"/><path d="M1359.47,162.54h133.42v28.29h-88.11v20.78h81.48v28.48h-81.48v20.23h89.72V289h-135Z"/><path d="M567.35,327.33H691.28V355.8H612.66V380h72.18v28.3H612.66v45.49H567.35Z"/><path d="M716,327.33H849.42v28.29H761.31V376.4H842.8v28.48H761.31v20.23H851v28.66H716Z"/><path d="M921.24,399.68C891.33,393.77,877,384.1,877,362.61a31.88,31.88,0,0,1,6.81-20.42c10-14,29.37-20.24,57-20.24C959,322,973,324.46,980,327c7.88,2.69,17,8.42,22.39,17.91,3.22,5.91,4.66,14.86,4.83,16.48H963c-2.87-11.11-14.69-11.65-22.39-11.65-4.3,0-19.88.36-19.88,10,0,7.35,7.88,9.5,26.15,13.26l15.94,3.22c17.19,3.4,46.56,8.42,46.56,36.36a40,40,0,0,1-8.06,24c-12,15.41-33.84,21-64.47,21-21,0-62-3.94-66.09-42.8h44.6c2.86,13.25,19.7,14.5,27.94,14.5,14,0,22-5,22-12.89,0-5.73-5.2-9-13.08-10.57Z"/><path d="M1060.22,355.62H1016.7V327.33h132.35v28.29h-43.34v98.15h-45.49Z"/><path d="M1166.78,327.33h45.31V453.77h-45.31Z"/><path d="M1228.92,327.33h47.46l30.81,76.29,31.34-76.29H1386l-57.67,126.44h-42.09Z"/><path d="M1430,327.33h51.58l54.81,126.44h-49.26l-6.8-20.6H1432l-6.8,20.6h-49.79Zm40.84,77.9L1456,362.43l-14.5,42.8Z"/><path d="M1555.77,327.33h45.49V423h64.65v30.81H1555.77Z"/><polygon points="1109.45 145.67 1109.45 288.98 1154.76 288.98 1154.76 124.55 1109.45 145.67"/><path class="cls-3" d="M498.4,216.15l-24.79-85.6-120,37.78-20.1,39.25-20.09-39.25-120-33.39-24.79,81.21,39.31,45.55L171.8,297.64l84.78,36.87-32.77-35.68L290,226s-39.73,14.12-60,19.9c.58-1.74,9.3-15.09,9.3-15.09l-40.22-14.53,11.56-22.62,101.72,15.42s20.8,41,21.08,41.77c.29-.72,21.09-43.52,21.09-43.52l101.72-24.63,11.56,29.19L432,230.85s4.34,13.35,4.92,15.09c-20.23-5.78-60-19.9-60-19.9l66.22,72.79-32.77,35.68,84.78-36.87L459.09,261.7Z"/><path class="cls-3" d="M333.51,428.88h0c-50.92,0-98.71,11.36-134.71,32l35.51.57s63.56-8.45,99.2-8.45,99.21,8.45,99.21,8.45l35.51-.57C432.23,440.24,384.44,428.88,333.51,428.88Z"/><path class="cls-3" d="M382.76,332.69l-27,12.73L411.49,299l-30.66-45.79-47.32,17.14-47.75-16.7L255.53,299l55.72,46.46-27-12.73s-71.08,40.3-86,113.86c37.15-19.69,84.83-28.76,135.27-28.76h0c50.45,0,98.13,9.07,135.27,28.76C453.84,373,382.76,332.69,382.76,332.69Zm-66.51-24.94c-7.71-7.1-11.65-9.92-16.16-12.53a48.09,48.09,0,0,0-14.15-5.31s-1.64-14.47,14.94-11.07S318.89,300.84,316.25,307.75Zm49.89-28.91c16.59-3.4,14.95,11.07,14.95,11.07a48,48,0,0,0-14.15,5.31c-4.51,2.61-8.46,5.43-16.16,12.53C348.14,300.84,349.56,282.23,366.14,278.84Z"/></g></svg>